<?xml version="1.0" encoding="UTF-8" standalone="no"?>
<!DOCTYPE svg PUBLIC "-//W3C//DTD SVG 1.1//EN" "http://www.w3.org/Graphics/SVG/1.1/DTD/svg11.dtd">
<svg width="100%" height="100%" viewBox="0 0 885 150" version="1.1" xmlns="http://www.w3.org/2000/svg" xmlns:xlink="http://www.w3.org/1999/xlink" xml:space="preserve" xmlns:serif="http://www.serif.com/" style="fill-rule:evenodd;clip-rule:evenodd;stroke-linejoin:round;stroke-miterlimit:2;">
    <g transform="matrix(1,0,0,1,-83.7858,-527.168)">
        <g transform="matrix(0.1,0,0,-0.1,0,1024)">
            <g transform="matrix(0.344729,-5.4465e-33,5.4465e-33,0.344729,-174.554,2189.5)">
                <path d="M4923,8045C4721,8009 4522,7907 4369,7763C4278,7677 4211,7587 4151,7470C4057,7288 4023,7131 4033,6921C4042,6715 4095,6558 4216,6378C4289,6271 4303,6220 4279,6164C4271,6147 4211,6084 4146,6023L4027,5912L3931,5900C3644,5865 3433,5763 3239,5567C3107,5432 3015,5268 2963,5072C2941,4988 2937,4953 2937,4815C2936,4682 2939,4640 2958,4568C3022,4313 3152,4106 3345,3953C3571,3774 3873,3691 4156,3731C4511,3780 4834,4005 4990,4310C5031,4390 5051,4405 5120,4405C5191,4405 5205,4394 5259,4296C5452,3944 5828,3720 6225,3720C6598,3720 6957,3924 7150,4245C7401,4664 7346,5198 7014,5549C6818,5758 6591,5870 6303,5902L6202,5913L5955,6160L5955,6218C5955,6273 5959,6282 6017,6368C6096,6485 6141,6580 6177,6705C6203,6798 6205,6817 6204,6980C6203,7171 6194,7222 6131,7385C6060,7571 5896,7769 5718,7884C5493,8030 5185,8093 4923,8045ZM5297,7854C5467,7819 5610,7746 5732,7631C5937,7438 6031,7208 6017,6927C6009,6748 5964,6617 5856,6460C5794,6370 5784,6350 5770,6271C5758,6203 5768,6124 5796,6064C5806,6044 5882,5960 5967,5877L6121,5725L6213,5718C6378,5705 6499,5675 6615,5617C6856,5497 7023,5289 7091,5025C7122,4903 7123,4712 7092,4598C7036,4392 6934,4228 6787,4110C6708,4046 6548,3966 6445,3939C6327,3907 6117,3907 6001,3938C5743,4008 5524,4185 5405,4420C5343,4542 5251,4600 5120,4600C4985,4600 4899,4543 4829,4409C4729,4217 4554,4059 4351,3976C4241,3932 4147,3915 4005,3916C3846,3917 3759,3938 3615,4009C3386,4122 3221,4323 3148,4575C3118,4681 3115,4919 3143,5018C3217,5289 3375,5489 3610,5609C3662,5636 3730,5665 3760,5674C3836,5697 3984,5720 4053,5720L4110,5720L4269,5875C4459,6061 4474,6087 4474,6220C4473,6327 4459,6365 4377,6479C4268,6631 4220,6780 4220,6968C4220,7120 4249,7246 4313,7375C4406,7563 4581,7725 4780,7806C4928,7866 5142,7886 5297,7854Z" style="fill-rule:nonzero;"/>
                <path d="M4905,7747C4800,7716 4764,7700 4678,7645C4442,7492 4310,7254 4309,6980C4309,6872 4319,6807 4346,6733L4361,6692L4437,6688C4478,6686 4514,6688 4516,6691C4518,6694 4511,6722 4500,6753C4390,7066 4537,7409 4845,7557C4947,7605 5043,7623 5165,7617C5332,7607 5469,7549 5589,7436C5629,7398 5646,7387 5633,7405C5613,7434 5613,7436 5630,7436C5642,7436 5646,7431 5642,7420C5637,7407 5639,7407 5653,7419C5662,7426 5668,7436 5665,7440C5662,7445 5664,7451 5670,7455C5675,7458 5680,7475 5680,7491C5680,7512 5684,7519 5693,7514C5700,7510 5702,7511 5697,7516C5692,7521 5683,7525 5677,7525C5670,7525 5664,7533 5662,7544C5653,7588 5498,7689 5372,7733C5293,7761 5272,7764 5135,7767C5002,7769 4976,7767 4905,7747Z" style="fill-rule:nonzero;"/>
                <path d="M4965,7501C4792,7451 4648,7319 4588,7155C4562,7082 4553,6929 4570,6847C4590,6749 4645,6653 4729,6570C4843,6457 4959,6410 5122,6410C5279,6410 5401,6460 5512,6571C5658,6718 5713,6933 5653,7125C5595,7311 5445,7456 5260,7505C5186,7525 5040,7523 4965,7501ZM5305,7335C5469,7252 5562,7075 5533,6903C5510,6770 5426,6659 5301,6597C5239,6567 5229,6565 5125,6565C5017,6565 5012,6566 4938,6603C4847,6647 4792,6705 4746,6800C4718,6860 4715,6873 4715,6965C4715,7052 4719,7072 4743,7123C4778,7199 4819,7250 4881,7296C4958,7352 5026,7371 5145,7367C5234,7365 5252,7361 5305,7335Z" style="fill-rule:nonzero;"/>
                <path d="M5020,7264C4878,7212 4789,7079 4804,6939C4817,6815 4894,6712 5009,6669C5086,6640 5193,6646 5266,6683C5407,6755 5475,6928 5420,7074C5393,7146 5321,7222 5252,7252C5189,7280 5080,7286 5020,7264ZM5188,7091C5282,7043 5292,6901 5205,6844C5141,6802 5062,6810 5013,6864C4970,6910 4962,6959 4986,7019C5020,7099 5109,7131 5188,7091Z" style="fill-rule:nonzero;"/>
                <path d="M5666,7403C5660,7389 5661,7388 5671,7397C5678,7404 5681,7412 5678,7415C5675,7418 5669,7413 5666,7403Z" style="fill-rule:nonzero;"/>
                <path d="M5751,6754C5751,6743 5754,6740 5757,6748C5760,6755 5759,6764 5756,6767C5753,6771 5750,6765 5751,6754Z" style="fill-rule:nonzero;"/>
                <path d="M5737,6716C5733,6706 5732,6695 5735,6692C5744,6683 5752,6698 5748,6717C5745,6734 5744,6734 5737,6716Z" style="fill-rule:nonzero;"/>
                <path d="M5778,6693C5790,6691 5810,6691 5823,6693C5835,6695 5825,6697 5800,6697C5775,6697 5765,6695 5778,6693Z" style="fill-rule:nonzero;"/>
                <path d="M4420,6577C4420,6572 4441,6539 4466,6504C4526,6419 4559,6345 4568,6274L4575,6216L4650,6165C4806,6059 4967,6014 5159,6023C5332,6031 5468,6078 5596,6173C5653,6215 5658,6222 5665,6267C5676,6344 5698,6397 5756,6489L5809,6575L5671,6581L5596,6506C5536,6447 5502,6422 5428,6386C5248,6298 5079,6288 4888,6354C4800,6385 4694,6457 4626,6531L4572,6591L4496,6589C4454,6588 4420,6583 4420,6577Z" style="fill-rule:nonzero;"/>
                <path d="M4534,6042C4518,6006 4504,5973 4502,5970C4498,5960 4653,5872 4730,5841C4948,5755 5235,5747 5455,5822C5527,5847 5675,5920 5710,5948L5735,5968L5705,6029C5689,6063 5676,6090 5675,6090C5675,6090 5622,6063 5558,6031C5402,5952 5297,5926 5130,5926C5061,5926 4978,5932 4945,5939C4823,5966 4693,6020 4604,6081L4564,6108L4534,6042Z" style="fill-rule:nonzero;"/>
                <path d="M4371,5836C4319,5783 4318,5780 4332,5758C4340,5745 4389,5710 4440,5680C4539,5621 4678,5498 4749,5406L4792,5350L5448,5350L5490,5407C5556,5493 5662,5593 5748,5649C5848,5714 5871,5732 5848,5724C5838,5721 5830,5723 5830,5728C5830,5734 5822,5741 5813,5743C5796,5747 5796,5748 5813,5749C5833,5750 5835,5777 5818,5815C5809,5836 5809,5843 5819,5849C5828,5855 5827,5860 5815,5870C5802,5881 5800,5880 5805,5868C5809,5859 5805,5850 5796,5847C5787,5843 5783,5846 5786,5853C5788,5860 5742,5842 5683,5813C5561,5753 5431,5708 5320,5689C5224,5673 5027,5673 4930,5690C4788,5714 4591,5791 4481,5866C4462,5879 4441,5890 4435,5890C4429,5890 4400,5866 4371,5836Z" style="fill-rule:nonzero;"/>
                <path d="M5843,5835C5843,5827 5847,5823 5852,5826C5857,5829 5858,5836 5855,5841C5846,5854 5843,5852 5843,5835Z" style="fill-rule:nonzero;"/>
                <path d="M5846,5802C5843,5797 5843,5785 5844,5774C5846,5764 5842,5751 5836,5747C5829,5741 5830,5740 5840,5742C5848,5745 5855,5759 5855,5778C5856,5811 5854,5815 5846,5802Z" style="fill-rule:nonzero;"/>
                <path d="M5886,5767C5889,5757 5895,5752 5898,5755C5901,5758 5898,5766 5891,5773C5881,5782 5880,5781 5886,5767Z" style="fill-rule:nonzero;"/>
                <path d="M4190,5664C4146,5620 4144,5619 4099,5624C4043,5632 3899,5616 3815,5595C3699,5565 3563,5490 3471,5405C3372,5314 3277,5160 3240,5030C3216,4946 3203,4759 3217,4695L3226,4655L3380,4649L3373,4692C3361,4756 3365,4887 3379,4950C3386,4980 3412,5047 3436,5098C3556,5348 3843,5501 4117,5460C4312,5431 4485,5317 4583,5154L4615,5100L5625,5100L5659,5158C5705,5235 5831,5357 5908,5398C5972,5432 5989,5447 5944,5430C5927,5423 5913,5423 5902,5430C5891,5436 5889,5439 5898,5440C5920,5440 5906,5463 5874,5480C5858,5489 5844,5503 5844,5511C5843,5519 5842,5529 5841,5533C5841,5537 5831,5536 5821,5530C5804,5521 5802,5523 5805,5540C5809,5559 5808,5559 5778,5544C5728,5518 5582,5371 5543,5307L5507,5247L4735,5257L4689,5326C4626,5421 4493,5544 4383,5608C4334,5637 4283,5672 4270,5685C4257,5699 4244,5710 4240,5710C4237,5710 4214,5689 4190,5664Z" style="fill-rule:nonzero;"/>
                <path d="M3933,5370C3778,5342 3637,5248 3550,5115C3487,5018 3460,4933 3460,4825C3460,4656 3516,4523 3631,4416C3857,4207 4178,4207 4398,4415C4479,4491 4539,4596 4560,4696C4574,4762 4569,4931 4552,4973C4541,4999 4538,5000 4465,5000C4424,5000 4390,4996 4390,4991C4390,4986 4396,4967 4404,4948C4441,4860 4432,4724 4384,4628C4350,4562 4261,4474 4198,4445C4125,4412 4029,4398 3955,4410C3828,4431 3705,4522 3648,4638C3618,4699 3615,4712 3615,4800C3615,4914 3627,4959 3681,5039C3728,5109 3805,5169 3889,5201C3935,5218 3961,5221 4040,5218C4147,5214 4213,5190 4287,5128L4328,5093L4412,5098C4457,5100 4497,5104 4499,5106C4501,5108 4484,5134 4461,5164C4417,5220 4341,5285 4281,5315C4178,5367 4040,5389 3933,5370Z" style="fill-rule:nonzero;"/>
                <path d="M6016,5329C5984,5318 5934,5294 5906,5276C5854,5242 5772,5161 5751,5122C5739,5100 5740,5100 5826,5100C5909,5100 5914,5101 5960,5135C6020,5179 6101,5216 6160,5226L6205,5233L6171,5242C6145,5249 6140,5254 6151,5261C6162,5268 6162,5270 6151,5270C6140,5270 6140,5273 6150,5285C6160,5298 6159,5300 6141,5300C6129,5300 6117,5307 6114,5315C6110,5323 6099,5330 6088,5330C6078,5330 6072,5335 6075,5340C6083,5353 6086,5353 6016,5329Z" style="fill-rule:nonzero;"/>
                <path d="M3902,5109C3838,5084 3763,5012 3729,4944C3710,4905 3706,4879 3705,4815C3705,4717 3728,4662 3795,4595C3863,4527 3917,4505 4020,4505C4119,4505 4173,4526 4240,4592C4402,4748 4350,5014 4139,5109C4080,5137 3974,5136 3902,5109ZM4090,4945C4185,4896 4183,4732 4086,4686C3989,4640 3888,4695 3874,4802C3860,4914 3987,4998 4090,4945Z" style="fill-rule:nonzero;"/>
                <path d="M6120,5116C5983,5068 5888,4920 5904,4782C5912,4712 5961,4619 6014,4574C6153,4455 6376,4484 6480,4635C6624,4844 6477,5131 6225,5129C6187,5129 6139,5123 6120,5116ZM6290,4945C6358,4910 6383,4800 6338,4733C6281,4651 6150,4650 6100,4732C6076,4772 6073,4848 6095,4891C6127,4953 6223,4980 6290,4945Z" style="fill-rule:nonzero;"/>
                <path d="M4655,4978C4659,4965 4664,4903 4667,4840C4673,4701 4660,4635 4598,4510C4519,4349 4358,4222 4170,4174C4068,4148 3909,4158 3803,4198C3649,4255 3526,4356 3446,4490L3414,4545L3337,4548C3295,4550 3260,4547 3260,4542C3260,4522 3305,4432 3345,4369C3458,4194 3661,4060 3875,4021C4213,3958 4592,4151 4745,4464C4804,4584 4823,4681 4818,4834C4815,4906 4810,4973 4805,4983C4799,4997 4785,5000 4723,5000C4649,5000 4648,4999 4655,4978Z" style="fill-rule:nonzero;"/>
                <path d="M4904,4983C4919,4944 4931,4800 4926,4729L4920,4653L4989,4677L5058,4702L5064,4778C5067,4821 5066,4884 5060,4920C5055,4956 5050,4988 5050,4993C5050,4997 5016,5000 4974,5000C4906,5000 4899,4998 4904,4983Z" style="fill-rule:nonzero;"/>
                <path d="M5176,4963C5173,4942 5167,4874 5163,4813C5158,4721 5160,4700 5171,4697C5205,4687 5296,4658 5306,4654C5313,4651 5316,4688 5316,4772C5315,4840 5319,4919 5323,4948L5331,5000L5183,5000L5176,4963Z" style="fill-rule:nonzero;"/>
                <path d="M5428,4973C5422,4957 5415,4895 5412,4833C5403,4610 5473,4427 5634,4253C5789,4086 6032,3990 6265,4003C6390,4010 6461,4029 6575,4085C6732,4163 6842,4270 6930,4433C6980,4524 7013,4649 7004,4705C6998,4738 6996,4741 6989,4725C6982,4706 6981,4706 6981,4728C6980,4740 6976,4750 6970,4750C6965,4750 6960,4757 6960,4765C6960,4774 6951,4780 6936,4780C6922,4780 6904,4790 6896,4802L6880,4824L6880,4797C6880,4737 6846,4621 6803,4530C6714,4345 6537,4209 6338,4174C6199,4149 6075,4168 5933,4236C5772,4313 5650,4457 5594,4637C5570,4711 5568,4731 5573,4837C5575,4902 5581,4965 5585,4978C5592,5000 5591,5000 5516,5000C5442,5000 5439,4999 5428,4973Z" style="fill-rule:nonzero;"/>
                <path d="M5679,4963C5673,4942 5666,4887 5663,4840C5654,4690 5704,4553 5809,4439C6044,4183 6447,4197 6653,4468C6679,4503 6700,4535 6700,4541C6700,4546 6663,4550 6619,4550C6537,4550 6537,4550 6493,4509C6421,4443 6351,4416 6243,4412C6135,4407 6081,4422 5993,4479C5831,4583 5771,4791 5845,4983C5851,4998 5844,5000 5772,5000L5691,5000L5679,4963Z" style="fill-rule:nonzero;"/>
                <path d="M6628,4864C6631,4799 6628,4758 6616,4718C6607,4687 6600,4659 6600,4656C6600,4653 6631,4650 6670,4650C6756,4650 6762,4659 6767,4780C6769,4835 6767,4858 6761,4845C6753,4827 6751,4829 6742,4860C6736,4879 6731,4887 6731,4877C6730,4862 6727,4861 6709,4870C6698,4877 6680,4890 6669,4901C6659,4911 6646,4920 6641,4920C6636,4920 6630,4928 6627,4938C6625,4947 6626,4914 6628,4864Z" style="fill-rule:nonzero;"/>
            </g>
            <g transform="matrix(1.13396,0,0,1.13396,-1297.47,-532.543)">
                <g transform="matrix(1,0,0,1,-5.65217,0)">
                    <g transform="matrix(1,0,0,1,1546.34,1501.96)">
                        <path d="M2140,3181L2140,2700L2275,2700C2389,2700 2417,2703 2448,2719C2494,2743 2520,2786 2520,2840C2520,2874 2514,2888 2488,2914L2455,2947L2478,2980C2505,3021 2506,3065 2480,3108C2451,3155 2413,3166 2268,3174L2140,3181ZM2399,3086C2412,3074 2420,3055 2420,3034C2420,2984 2392,2970 2293,2970L2210,2970L2210,3112L2294,3109C2359,3106 2383,3101 2399,3086ZM2426,2875C2455,2846 2452,2817 2418,2788C2402,2774 2379,2770 2304,2770L2210,2770L2210,2900L2305,2900C2394,2900 2403,2898 2426,2875Z" style="fill-rule:nonzero;"/>
                    </g>
                    <g transform="matrix(1,0,0,1,1546.34,1501.96)">
                        <path d="M3572,3173L3379,3170L3382,3137L3385,3105L3463,3102L3540,3099L3540,2700L3620,2700L3620,3100L3770,3100L3770,3140C3770,3162 3769,3179 3768,3178C3766,3176 3678,3174 3572,3173Z" style="fill-rule:nonzero;"/>
                    </g>
                    <g transform="matrix(1,0,0,1,1546.34,1501.96)">
                        <path d="M3980,3171C3878,3140 3814,3061 3803,2954C3793,2859 3846,2764 3934,2717C3966,2700 3992,2695 4055,2695C4140,2695 4194,2714 4234,2759C4253,2780 4253,2781 4230,2802C4212,2819 4204,2821 4191,2811C4182,2805 4155,2790 4131,2779C3979,2706 3827,2863 3901,3016C3930,3077 3979,3105 4056,3105C4105,3105 4124,3100 4158,3077C4198,3051 4201,3050 4225,3066C4258,3087 4257,3094 4217,3124C4150,3175 4056,3194 3980,3171Z" style="fill-rule:nonzero;"/>
                    </g>
                    <g transform="matrix(1,0,0,1,1546.34,1501.96)">
                        <path d="M4368,3173L4340,3169L4340,2700L4420,2700L4420,2900L4670,2900L4670,2802C4670,2748 4672,2701 4675,2698C4678,2696 4693,2695 4710,2698L4740,2702L4740,3170L4670,3170L4670,2963L4548,2967C4480,2970 4424,2973 4423,2974C4422,2974 4420,3020 4418,3074C4416,3130 4411,3174 4405,3175C4400,3176 4383,3175 4368,3173Z" style="fill-rule:nonzero;"/>
                    </g>
                    <g transform="matrix(1,0,0,1,1546.34,1501.96)">
                        <path d="M6335,3172C6332,3169 6330,3062 6330,2933L6330,2700L6400,2700L6400,2848L6483,2852C6619,2858 6680,2904 6687,3004C6692,3069 6668,3117 6614,3147C6582,3165 6554,3169 6458,3173C6393,3175 6338,3175 6335,3172ZM6578,3083C6610,3059 6620,3026 6608,2982C6596,2939 6553,2920 6465,2920L6400,2920L6400,3113L6476,3108C6530,3104 6559,3097 6578,3083Z" style="fill-rule:nonzero;"/>
                    </g>
                    <g transform="matrix(1,0,0,1,1546.34,1501.96)">
                        <path d="M2625,3170L2631,2700L2921,2700L2918,2733L2915,2765L2808,2768L2700,2771L2700,3170L2625,3170Z" style="fill-rule:nonzero;"/>
                    </g>
                    <g transform="matrix(1,0,0,1,1546.34,1501.96)">
                        <path d="M2990,3170L2990,2700L3330,2700L3330,2770L3070,2770L3070,2900L3300,2900L3300,2970L3070,2970L3070,3105L3200,3101L3330,3098L3330,3170L2990,3170Z" style="fill-rule:nonzero;"/>
                    </g>
                    <g transform="matrix(1,0,0,1,1546.34,1501.96)">
                        <path d="M4870,2941C4870,2814 4874,2709 4878,2706C4883,2703 4949,2700 5026,2699L5165,2698L5161,2726C5160,2742 5153,2758 5146,2763C5140,2767 5093,2769 5042,2768L4950,2765L4950,3170L4870,3170L4870,2941Z" style="fill-rule:nonzero;"/>
                    </g>
                    <g transform="matrix(1,0,0,1,1546.34,1501.96)">
                        <path d="M5240,3170L5240,2700L5581,2700L5578,2733L5575,2765L5445,2768L5314,2771L5315,2835L5315,2900L5540,2900L5540,2970L5310,2970L5310,3099L5443,3102L5575,3105L5578,3138L5581,3170L5240,3170Z" style="fill-rule:nonzero;"/>
                    </g>
                    <g transform="matrix(1,0,0,1,1546.34,1501.96)">
                        <path d="M5620,3165C5620,3161 5628,3146 5639,3132C5649,3117 5690,3054 5729,2992L5800,2878L5800,2700L5880,2700L5880,2884L5970,3021C6020,3096 6060,3160 6060,3164C6060,3167 6043,3170 6023,3170C5986,3170 5983,3167 5916,3065C5878,3007 5843,2961 5839,2962C5834,2964 5802,3010 5768,3065C5705,3164 5704,3165 5662,3168C5639,3170 5620,3168 5620,3165Z" style="fill-rule:nonzero;"/>
                    </g>
                    <g transform="matrix(1,0,0,1,1546.34,1501.96)">
                        <path d="M6842,3013C6804,2926 6756,2820 6736,2778L6701,2700L6741,2700C6780,2700 6782,2701 6805,2755L6830,2810L7068,2810L7091,2755C7113,2702 7115,2700 7152,2700C7173,2700 7190,2703 7190,2707C7190,2711 7144,2817 7088,2942L6985,3170L6913,3170L6842,3013ZM6993,2980C7014,2931 7029,2886 7025,2880C7019,2869 6860,2865 6860,2876C6860,2887 6945,3070 6950,3070C6953,3070 6972,3029 6993,2980Z" style="fill-rule:nonzero;"/>
                    </g>
                    <g transform="matrix(1,0,0,1,1546.34,1501.96)">
                        <path d="M7280,3170L7280,2700L7350,2700L7350,2880L7394,2880C7438,2880 7439,2879 7506,2790C7562,2715 7579,2700 7601,2700C7616,2700 7635,2697 7644,2694C7672,2683 7661,2704 7595,2788C7529,2872 7519,2890 7544,2890C7551,2890 7574,2908 7594,2930C7625,2965 7630,2977 7630,3021C7630,3085 7612,3120 7562,3148C7527,3167 7508,3170 7401,3170L7280,3170ZM7537,3075C7566,3041 7566,2999 7538,2973C7512,2950 7441,2938 7386,2947L7350,2953L7350,3113L7432,3107C7505,3102 7517,3099 7537,3075Z" style="fill-rule:nonzero;"/>
                    </g>
                    <g transform="matrix(1,0,0,1,1546.34,1501.96)">
                        <path d="M7750,3170L7750,2700L7820,2700L7820,2810C7820,2873 7824,2920 7830,2920C7840,2920 7881,2881 7984,2772C8052,2700 8053,2699 8099,2702L8145,2705L8075,2780C8036,2821 7985,2877 7961,2904L7918,2952L8019,3054C8074,3110 8120,3159 8120,3163C8120,3167 8101,3170 8077,3170C8037,3170 8030,3165 7940,3075C7888,3023 7840,2980 7833,2980C7823,2980 7820,3005 7820,3075L7820,3170L7750,3170Z" style="fill-rule:nonzero;"/>
                    </g>
                </g>
                <g transform="matrix(1,0,0,1,-1305.65,17.5)">
                    <g transform="matrix(1,0,0,1,1546.34,1501.96)">
                        <path d="M4415,2504C4410,2503 4393,2499 4377,2496C4337,2487 4310,2455 4310,2417C4310,2365 4333,2343 4410,2320C4472,2302 4480,2296 4480,2275C4480,2229 4428,2218 4366,2250C4329,2268 4326,2268 4314,2252C4294,2226 4297,2221 4343,2200C4393,2177 4438,2175 4485,2194C4524,2210 4540,2236 4540,2279C4540,2321 4512,2346 4443,2366C4359,2390 4345,2404 4376,2434C4395,2454 4446,2455 4482,2436C4501,2426 4511,2425 4519,2433C4534,2448 4533,2465 4517,2478C4503,2490 4431,2508 4415,2504Z" style="fill-rule:nonzero;"/>
                    </g>
                    <g transform="matrix(1,0,0,1,1546.34,1501.96)">
                        <path d="M3440,2500L3440,2190L3470,2190C3500,2190 3500,2191 3500,2245C3500,2299 3500,2300 3529,2300C3554,2300 3565,2291 3597,2245C3630,2198 3639,2190 3668,2190C3685,2190 3700,2193 3700,2196C3700,2199 3682,2224 3661,2252L3622,2303L3656,2335C3702,2379 3702,2420 3656,2466C3622,2500 3621,2500 3531,2500L3440,2500ZM3614,2434C3654,2395 3618,2350 3548,2350L3500,2350L3500,2450L3549,2450C3581,2450 3604,2444 3614,2434Z" style="fill-rule:nonzero;"/>
                    </g>
                    <g transform="matrix(1,0,0,1,1546.34,1501.96)">
                        <path d="M3890,2500L3890,2190L4120,2190L4120,2215C4120,2240 4119,2240 4035,2240L3950,2240L3950,2320L4026,2320C4098,2320 4101,2321 4098,2343C4095,2363 4089,2365 4023,2368L3950,2371L3950,2450L4035,2450C4119,2450 4120,2450 4120,2475L4120,2500L3890,2500Z" style="fill-rule:nonzero;"/>
                    </g>
                    <g transform="matrix(1,0,0,1,1546.34,1501.96)">
                        <path d="M4740,2501L4740,2190L4970,2190L4970,2215C4970,2240 4969,2240 4885,2240L4800,2240L4800,2320L4870,2320C4938,2320 4940,2321 4940,2345C4940,2369 4938,2370 4870,2370L4800,2370L4800,2450L4886,2450C4969,2450 4971,2451 4968,2473C4965,2494 4961,2495 4853,2498L4740,2501Z" style="fill-rule:nonzero;"/>
                    </g>
                    <g transform="matrix(1,0,0,1,1546.34,1501.96)">
                        <path d="M5213,2367C5131,2187 5132,2190 5168,2190C5190,2190 5199,2197 5211,2223C5225,2255 5226,2255 5295,2255C5364,2255 5365,2255 5380,2223C5392,2196 5401,2190 5428,2190C5445,2190 5460,2191 5460,2193C5460,2198 5334,2475 5327,2488C5322,2494 5308,2500 5296,2500C5276,2500 5265,2482 5213,2367ZM5326,2361L5349,2310L5299,2310C5271,2310 5250,2313 5252,2318C5254,2322 5264,2347 5274,2373C5284,2399 5295,2418 5298,2416C5300,2413 5313,2388 5326,2361Z" style="fill-rule:nonzero;"/>
                    </g>
                    <g transform="matrix(1,0,0,1,1546.34,1501.96)">
                        <path d="M5640,2500L5640,2190L5670,2190C5700,2190 5700,2191 5700,2245C5700,2299 5700,2300 5730,2300C5754,2300 5766,2291 5797,2245C5830,2198 5840,2191 5868,2190C5885,2190 5900,2193 5900,2198C5900,2202 5882,2227 5861,2255L5823,2304L5857,2336C5881,2359 5890,2376 5890,2399C5890,2474 5848,2500 5725,2500L5640,2500ZM5811,2440C5823,2433 5830,2419 5830,2400C5830,2364 5807,2350 5746,2350L5700,2350L5700,2450L5746,2450C5771,2450 5800,2445 5811,2440Z" style="fill-rule:nonzero;"/>
                    </g>
                    <g transform="matrix(1,0,0,1,1546.34,1501.96)">
                        <path d="M6152,2480C6083,2438 6058,2336 6099,2260C6119,2222 6187,2180 6229,2180C6272,2180 6326,2199 6345,2220C6362,2239 6362,2242 6347,2257C6332,2272 6329,2272 6306,2257C6222,2201 6109,2281 6140,2374C6162,2442 6233,2469 6300,2435C6358,2405 6383,2446 6328,2480C6283,2507 6197,2507 6152,2480Z" style="fill-rule:nonzero;"/>
                    </g>
                    <g transform="matrix(1,0,0,1,1546.34,1501.96)">
                        <path d="M6560,2501L6560,2190L6620,2190L6620,2320L6760,2320L6760,2190L6820,2190L6820,2339C6820,2422 6816,2491 6812,2494C6807,2497 6794,2496 6782,2493C6763,2488 6760,2481 6760,2429L6760,2370L6621,2370L6618,2433C6615,2492 6614,2495 6588,2498L6560,2501Z" style="fill-rule:nonzero;"/>
                    </g>
                </g>
            </g>
        </g>
    </g>
</svg>
